<?xml version="1.0" encoding="utf-8"?>
<!-- Generator: Adobe Illustrator 22.1.0, SVG Export Plug-In . SVG Version: 6.00 Build 0)  -->
<svg version="1.1" id="Layer_1" xmlns="http://www.w3.org/2000/svg" xmlns:xlink="http://www.w3.org/1999/xlink" x="0px" y="0px"
	 viewBox="0 0 432 288" style="enable-background:new 0 0 432 288;" xml:space="preserve">
<style type="text/css">
	.st0{fill:#808285;}
	.st1{fill:#DA2128;}
</style>
<g>
	<g>
		<g>
			<polygon class="st0" points="39.5,111.3 53.7,116.1 53.7,163.5 79.3,169.8 79.3,180 39.5,170.2 			"/>
			<polygon class="st0" points="85.3,126.7 85.3,181.6 97.4,184.5 97.4,130.4 			"/>
			<path class="st0" d="M142.8,167.9c2.2,1.1,8.7,5.3,8.7,15.4c0,10.9-6.8,12.8-15.4,10.6c-4.9-1.1-29-7.2-29-7.2v-53
				c0,0,19.9,6.8,27.8,9.4c11.3,3.8,14.7,9,14.7,16.5C149.6,166.1,145,167.6,142.8,167.9L142.8,167.9z M118.4,180.4
				c0,0,11.3,3.1,15.4,4.1c4.5,1.1,7.5,0,7.5-4.5c0-4.1-3.1-7.2-7.9-8.2c-2.7-0.7-15-4.1-15-4.1V180.4z M133.5,162.7
				c3.4,1.1,6.5,0.7,6.5-3.8c0-4.1-3.8-6.5-6.8-7.2c-2.7-0.7-14.2-4.5-14.2-4.5v11.3C118.4,158.2,130.1,161.6,133.5,162.7z"/>
			<path class="st0" d="M167.3,162.3c0,0,9.7,3.1,12.8,4.1c5.3,1.5,7.2,4.5,7.2,7.9c0,3.1-1.9,4.9-6,3.4c-4.5-1.5-13.8-4.1-13.8-4.1
				L167.3,162.3L167.3,162.3z M157.9,199.5l9.4,2.2v-19.5l10.6,3.1l9.4,21.4l10.6,2.7c0,0-7.5-16.2-10.6-22.2c3.4,0.4,9-1.1,9-9.7
				c0-12.1-7.5-16.5-15.4-19.2c-4.5-1.5-18.1-6-22.5-7.5v48.8L157.9,199.5L157.9,199.5z"/>
			<path class="st0" d="M197.7,209.4l15.8-40.2l9,3.1l14.2,47L228,217l-2.7-9l-15.8-4.1l-2.6,7.7L197.7,209.4z M212,196.5l10.9,3.1
				l-5.3-18.4l-0.4-0.4L212,196.5z"/>
			<path class="st0" d="M246.1,187.5c0,0,6,1.9,8.7,2.7c4.1,1.1,5.6,3.8,5.6,6.8c0,3.1-1.9,4.1-5.6,3.1c-3.8-1.1-9-2.7-9-2.7v-9.9
				H246.1z M239.4,219.4l7.2,1.9v-16.9l7.5,2.2l7.2,18.1l7.5,1.9c0,0-5.3-13.8-7.5-18.8c1.9,0,6.5-0.7,6.5-8.7
				c0-7.5-4.1-13.5-11.6-16.2c-4.1-1.5-16.5-5.3-16.5-5.3L239.4,219.4L239.4,219.4z"/>
			<polygon class="st0" points="267.6,187.2 275.4,189.4 282.2,208.2 289.4,194.3 296.6,196.5 285.2,216.7 285.2,231.1 279.2,229.7 
				279.2,215 			"/>
			<path class="st0" d="M316.4,211.2c5.3,0,7.9,7.9,7.9,13.1c0,5.6-1.9,9.4-5.3,9.4c-4.1,0-7.9-5.3-7.9-13.1
				C311.1,212.6,314.5,211.2,316.4,211.2z M305.9,218.7c0,14.7,7.9,20.3,13.5,20.3c6,0,10.1-4.1,10.1-13.8
				c0-10.9-5.3-20.3-13.8-20.3C311.1,204.8,305.9,209.4,305.9,218.7z"/>
			<polygon class="st0" points="333.4,211.2 349.5,215.3 349.5,220.6 337.8,217.9 337.8,225.9 348.8,228.8 348.8,233.8 337.8,230.7 
				337.8,242.4 333.4,240.8 			"/>
			<path class="st0" d="M131.2,201c0,0,10.9,2.7,15.8,3.8c6.5,1.5,9.4,6,9.4,12.1c0,6-4.5,8.2-10.1,7.2c-6-1.1-8.7-1.9-8.7-1.9v12.4
				l-6.5-1.1V201L131.2,201z M137.1,217.2c0,0,4.9,1.1,7.5,1.5c3.4,0.7,5.3-0.4,5.3-3.1c0-3.1-1.9-5.3-5.6-6
				c-2.7-0.7-7.2-1.5-7.2-1.5L137.1,217.2L137.1,217.2z"/>
			<polygon class="st0" points="159.3,207.8 165.3,209 165.3,221.3 179.6,224.4 179.6,212.3 184.9,213.8 184.9,243.1 179.6,242 
				179.6,229.2 165.3,226.6 165.3,239.7 159.3,238.7 			"/>
			<polygon class="st0" points="190.5,215 190.5,244.2 195.8,245 195.8,216 			"/>
			<polygon class="st0" points="201.1,217.6 201.1,246.2 216.4,248.8 216.4,244.2 206.2,242.4 206.2,218.7 			"/>
			<path class="st0" d="M217.3,249.1l9.4-25.6l5.3,1.1l8.7,28.5l-5.3-1.1l-1.5-5.3l-9.4-1.9l-1.9,4.9L217.3,249.1z M225.8,240.8
				l6.8,1.1l-3.1-11.3h-0.4L225.8,240.8z"/>
			<path class="st0" d="M242,227c0,0,6,1.5,9,2.2c6.5,1.5,9.7,7.2,9.7,15.4c0,8.2-4.9,11.6-10.9,10.6c-3.1-0.4-7.9-1.5-7.9-1.5V227
				L242,227z M246.1,249.9c0,0,1.5,0.4,3.8,0.7c3.8,0.7,6.5-1.5,6.5-7.2s-1.5-9.4-6-10.1c-1.5-0.4-4.1-0.7-4.1-0.7L246.1,249.9
				L246.1,249.9z"/>
			<polygon class="st0" points="263.4,231.9 278,235.6 278,239.4 267.6,237 267.6,243.1 277.7,245.4 277.7,249.1 267.6,247.2 
				267.6,254.1 278.5,255.9 278.5,260 263.4,257.3 			"/>
			<polygon class="st0" points="281.4,236.3 285.2,237 285.2,257.3 292.8,259 292.8,262.7 281.4,260.4 			"/>
			<path class="st0" d="M294.6,239.4c0,0,4.5,1.1,7.2,1.5c4.9,1.1,6.8,4.1,6.8,9.4c0,4.9-3.4,5.6-6,5.3c-1.9-0.4-4.1-0.7-4.1-0.7v9
				l-3.8-0.7L294.6,239.4L294.6,239.4z M298.3,251c0,0,1.9,0.4,3.1,0.7c2.7,0.7,3.4-0.4,3.4-2.2c0-1.9-1.1-3.8-3.1-4.1
				c-1.5-0.4-3.8-0.7-3.8-0.7v6.5h0.4V251z"/>
			<polygon class="st0" points="310.4,243.1 313.4,243.8 313.4,252.9 321,254.4 321,245.4 324.2,246.2 324.2,268.2 321,267.5 
				321,258.2 313.4,256.6 313.4,266.5 310.4,265.7 			"/>
			<polygon class="st0" points="327.3,246.9 330.3,247.6 330.3,269.4 327.3,269.1 			"/>
			<path class="st0" d="M331,269.4l5.6-20.3l3.4,0.7l5.3,22.2l-3.1-0.4l-1.1-4.5l-6.5-1.1l-1.1,4.1L331,269.4z M336,263.1l4.9,0.7
				l-2.2-9.4h-0.4L336,263.1z"/>
		</g>
	</g>
	<g>
		<polygon class="st1" points="131.2,63.5 131.2,134.2 147,139.8 147,122.5 166.1,117.3 166.1,98.4 147,104.5 147,74.8 177.7,62 
			177.7,41.7 		"/>
		<path class="st1" d="M172.1,79.3v69.1l16.5,5.6c0,0,0-25.6,0-40.6c0-15.8,7.9-22.5,17.2-25.6c0-4.1,0-21.4,0-25.9
			C192,67.2,189,79.5,187.5,84.4l-0.7,0.4l-0.7-11.3L172.1,79.3z"/>
		<path class="st1" d="M282.2,124.4c-1.9,9-12.1,36.5-39.9,36.5c-23.3,0-35.7-20.6-35.7-50.3c0-37.2,19.2-62.8,44.3-62.8
			c23.7,0,34.1,25.6,33.4,53l-57.1,13.8c0.4,12.1,4.9,24,15.8,24c13.8,0,18.4-19.2,19.2-21L282.2,124.4z M259.3,86.9
			c0.4-4.5-2.2-17.6-12.4-17.6c-11.3,0-17.2,15-18.8,26.3L259.3,86.9z"/>
		<path class="st1" d="M357,59.4c-0.4-7.5-4.5-21.4-17.2-21.4c-14.2,0-23,18.1-23.7,33.1L357,59.4z M360,95.8l24.4,7.9
			c-2.2,13.8-19.2,44.7-49.6,44.7c-29.3,0-46.6-23.3-46.6-61.6c0-46.2,27.1-73.7,54.1-73.7c30,0,47.4,27.8,45.4,61.9l-73.3,17.6
			c0.7,15,6.8,30,20.6,30C352.5,123.3,358.8,100,360,95.8z"/>
	</g>
</g>
</svg>
